# xmcd
#
# Track frame offsets: 
#        150
#        13954
#        27347
#        38852
#        50478
#        68167
#        78506
#        93040
#        107441
#        124358
#        137087
#        155222
#        166926
#        176299
#
# Disc length: 2484 seconds
#
# Revision: 0
# Processed by: cddbd v1.5.2PL0 Copyright (c) Steve Scherf et al.
# Submitted via: ExactAudioCopy v0.99pb5
#
DISCID=b509b20e
DTITLE=Smell of Kat - Beware the Kats
DYEAR=1998
DGENRE=Rockabilly
TTITLE0=Lies
TTITLE1=Midnite chase
TTITLE2=Restless
TTITLE3=Queen of desire
TTITLE4=Graveyard tale
TTITLE5=Hungry
TTITLE6=Runaway
TTITLE7=Alien love
TTITLE8=Two men in my head
TTITLE9=Breakin' bones
TTITLE10=Rockin' 'n the graveyard
TTITLE11=Nothing more but shout
TTITLE12=You're gonna die
TTITLE13=Evil girl
EXTD=
EXTT0=
EXTT1=
EXTT2=
EXTT3=
EXTT4=
EXTT5=
EXTT6=
EXTT7=
EXTT8=
EXTT9=
EXTT10=
EXTT11=
EXTT12=
EXTT13=
PLAYORDER=
